<svg enable-background="new 0 0 1280 1280" version="1.1" viewBox="0 0 1280 1280" xmlns="http://www.w3.org/2000/svg"><g transform="translate(0 1280) scale(.1 -.1)" fill="#fff" stroke="#fff" stroke-miterlimit="10" stroke-width="30"><path d="m5897.4 12570c-97-15.7-260-79.6-338-133.7-106-72.7-203-189.7-262-316.5-54-114-68-181.8-68-320.4 0-104.2 4-135.6 27-211.3 103-337.1 398-556.3 751-557.3 168-1 297 36.4 437 125.8 185 117 305 302.7 345 531.8 14 82.6 15 110.1 4 191.7-41 328.3-251 572.1-571 666.4-74 21.5-252 34.3-325 23.5z"/><path d="m4210.4 11736c-40-52.1-73-98.3-73-104.2 0-4.9 40-39.3 88-76.7 215-166.1 402-348 464-451.2 36-60 91-224.1 119-355.8 94-442.3 77-1040.9-47-1720.1-122-666.4-393-1287.6-1010-2315.8-81-135.6-243-401-359-589.8-117-188.7-291-472.8-386-630.1-765-1266-1088-2066.1-1155-2858.3-13-158.3-7-392.2 15-516 95-545.5 381-1053.7 716-1272.9 399-260.5 1156-414.8 2340-478.7 326-16.7 2688-16.7 2980 0 964 57 1598 165.1 2028 347 278 117 439 249.7 612 503.3 43 63.9 81 114 84 113 2-2 8 1 13 5.9s3 5.9-4 2c-20-10.8-15 3.9 21 65.9 18 30.5 36 53.1 40 49.1s4-1 1 7.9c-3 7.9 9 45.2 26 82.6 17 38.3 47 109.1 66 157.3 18 49.1 31 75.7 28 60-4-15.7-24-72.7-46-126.8s-38-100.3-35-102.2c5-4.9 68 145.5 105 249.7 85 243.8 115 434.5 114 705.7-2 740.1-295 1560.9-966 2712.9-116 199.5-289 484.6-572 943.6-643 1044.8-877 1473.4-1099 2010.1-231 558.3-356 1182.5-373 1858.7-14 593.7 79 1019.3 272 1235.5 22 25.6 34 41.3 26 37.4-8-5.9-12-4.9-10 2 6 14.7 154 145.5 279 245.7 58 46.2 109 87.5 114 91.4 8 6.9-140 205.4-153 205.4-12-1-208-160.2-328-266.4-137-120.9-265-265.4-311-349.9-73-135.6-144-405.9-179-676.3-24-190.7-24-696.9 1-933.8 88-851.2 238-1355.5 636-2138.8 199-390.2 400-736.2 933-1601.2l246-398.1-3086-2.9c-1698-1-3088 0-3091 2.9s64 116 148 252.6c669 1086.1 783 1280.7 1010 1723.1 401 782.4 553 1279.8 645 2118.2 21 189.7 31 675.3 16 847.3-27 334.2-93 613.3-190 803-71 136.6-296 360.7-578 574l-62 46.2-73-93.4z"/><path d="m6632.4 10547c-79-21.6-150-57-211-103.2-270-206.4-293-609.4-48-846.3 105-102.2 243-157.3 393-157.3 165 0 288 50.1 402 161.2 91 89.4 139 181.8 161 308.6 14 81.6 14 99.3 0 180.9-39 224.1-202 400-422 455.1-70 17.7-212 17.7-275 1z"/><path d="m5967.4 8778c-205-51.1-357-211.3-397-418.7-13-70.8-4-186.8 21-257.5 58-166.1 197-291.9 371-337.1 232-60.9 496 58 602 271.3 175 350.9-80 758.8-472 754.9-41-0.2-97-6.1-125-12.9z"/><path d="m6748.4 7042.1c-176-61.9-286-212.3-286-393.2 0-220.2 172-399.1 395-410.9 99-4.9 170 13.8 252 65.9 277 175.9 246 582.9-54 721.5-91 41.3-216 48.2-307 16.7z"/><path d="m10678 1422.8c-6-13.8-5-14.7 5-5.9 7 6.9 10 14.7 7 17.7-3 2.9-9-2-12-11.8z"/><path d="m10658 1383.4c-6-13.8-5-14.7 5-5.9 7 6.9 10 14.7 7 17.7s-9-1.9-12-11.8z"/></g><path d="m632.9 1091.1c12.5 0 18.7 5.9 18.7 17.6 0 7.6-3.4 14-10.1 19.3-6.8 5.3-13.2 8-19.3 8-7.7 0-15.6-3.6-23.6-10.9-8.1-7.3-12.1-16.3-12.1-27 0-14.8 4.9-26.5 14.7-35s22-12.7 36.6-12.7c17.5 0 32.1 6.1 43.7 18.2 11.7 12.1 17.5 27.5 17.5 46.3 0 22.1-9.9 39.7-29.6 52.7s-41.4 19.5-65 19.5c-42.9 0-82.8-17.5-119.6-52.5s-55.2-77.5-55.2-127.5c0-47.1 17.9-90 53.7-128.5s73.8-57.8 114.1-57.8c30.2 0 58.2 9.8 84.1 29.5 25.8 19.7 38.7 40.2 38.7 61.5 0 26.6-11.1 48.3-33.2 65.2s-49.9 25.4-83.3 25.4c-32.3 0-57.2-4.4-74.7-13.3-17.5-8.8-26.2-21.2-26.2-37.1 0-14.3 5.4-26 16.3-35.2 10.9-9.1 22.3-13.7 34.2-13.7 10.6 0 20.2 2.7 28.8 8s12.9 11.7 12.9 18.9c0 7.8-3 15.1-8.9 21.9-6 6.8-11.7 10.2-17.3 10.2-10.9 0-16.3-3.8-16.3-11.3 12.5-3.4 18.7-9.1 18.7-17.4 0-6.4-2.4-11.5-7.2-15.3-4.8-3.7-10.5-5.6-17.1-5.6-4.8 0-9.3 3.8-13.5 11.5s-6.4 15.6-6.4 23.6c0 11.5 8.3 21.3 24.8 29.5 16.6 8.2 36.6 12.3 60.2 12.3 20.1 0 35.8-6 46.9-18s16.7-28.1 16.7-48.4c0-21.1-8.1-41.3-24.2-60.5-16.2-19.3-36-28.9-59.6-28.9-29.4 0-54.4 16.2-75.1 48.6s-31 76.4-31 131.8c0 45.8 11.9 83.7 35.6 113.7s52.9 44.9 87.6 44.9c16.2 0 32.3-5.5 48.3-16.6s24-25.1 24-42c0-11.5-5.7-21.2-17.1-29.3s-23.8-12.1-37.4-12.1c-7.4 0-13.8 2.4-19.1 7.1s-7.9 10.4-7.9 17c0 11.3 6.8 17 20.3 17 4 0 7.2-2.4 9.5-7.4 2.2-4.8 3.4-9.9 3.4-15.2z" fill="#420140" stroke="#D7AACD" stroke-miterlimit="10" stroke-width="2"/><polygon points="710 431 842 431 842 431" fill="none"/><path d="m883 849-71.1-0.6c-1.4 40.2-2.1 66.1-2.1 77.6l-10.7 0.6c0-16 0.6-42.1 1.8-78.2-38.3 0-63.3-0.6-75.1-1.9l0.7-15.1c37.1 4.3 61.5 6.4 73.5 6.4-0.8-35.7-1.2-59.5-1.2-71.3l13.7-2.8-1.2 74.1c16.7 0 40-1.5 69.9-4.4l1.8 15.6z" fill="#420140" stroke="#D7AACD" stroke-miterlimit="10" stroke-width="2"/><rect x="1453.2" y="1074.8" width="0" height="2.2" fill="none"/></svg>
